<?xml version="1.0" encoding="utf-8"?><svg viewBox="0 0 154 38" xmlns="http://www.w3.org/2000/svg" xmlns:xlink="http://www.w3.org/1999/xlink"><style>:root>svg{display:none}:root>svg:target{display:block}</style><svg fill="none" viewBox="0 0 38 38" id="close" xmlns="http://www.w3.org/2000/svg"><path d="M5.5 38l-5-5.5 18.5-18 18.5 18-5 5.5L19 25 5.5 38z" fill="#fff"/><path d="M32 0l5 5.5-18.5 18L0 5.5 5 0l13.5 13L32 0z" fill="#fff"/></svg><svg fill="none" viewBox="0 0 40 28" id="hamb" xmlns="http://www.w3.org/2000/svg"><path fill="#fff" d="M0 22h40v6H0zM0 0h40v6H0zM0 11h40v6H0z"/></svg><svg fill="none" viewBox="0 0 26 26" id="icon_search" xmlns="http://www.w3.org/2000/svg"><path d="M18.417 18.417l4.333 4.333M3.25 11.917a8.667 8.667 0 1017.333 0 8.667 8.667 0 00-17.333 0z" stroke="#fff" stroke-width="1.5" stroke-linecap="round" stroke-linejoin="round"/></svg><svg fill="none" viewBox="0 0 154 28" id="lava" xmlns="http://www.w3.org/2000/svg"><path d="M3 25V3h7.5v15H26v7H3zM39.5 26l-5-5.5L53 2.5l18.5 18-5 5.5L53 13 39.5 26zM119.5 26l-5-5.5 18.5-18 18.5 18-5 5.5L133 13l-13.5 13zM106.5 2.5l5 5.5L93 26 74.5 8l5-5.5 13.5 13 13.5-13z" fill="#fff"/></svg><svg fill="none" viewBox="0 0 24 38" id="more" xmlns="http://www.w3.org/2000/svg"><path d="M.25 5.75l5.5-5 18 18.5-18 18.5-5.5-5 13-13.5-13-13.5z" fill="#fff"/></svg></svg>